<svg width="42" height="28" viewBox="0 0 42 28" fill="none" xmlns="http://www.w3.org/2000/svg">
<path d="M33.1751 28L9.76063 27.9626C8.40056 27.9626 7.14655 27.7504 5.9986 27.3262C4.85065 26.8895 3.85243 26.2906 3.00394 25.5294C2.15546 24.7683 1.4879 23.8761 1.00127 22.8529C0.527116 21.8298 0.290039 20.7193 0.290039 19.5214C0.290039 18.1738 0.552071 16.9572 1.07614 15.8717C1.61268 14.7861 2.3551 13.9189 3.30341 13.2701C4.25171 12.6212 5.33728 12.2594 6.56009 12.1845C6.54762 11.0116 6.79093 9.95098 7.29004 9.00267C7.80163 8.05437 8.47542 7.27451 9.31143 6.6631C10.1599 6.05169 11.0895 5.67736 12.1002 5.54011C13.1234 5.39037 14.1278 5.54011 15.1136 5.9893C15.6875 4.90374 16.4237 3.90553 17.3221 2.99465C18.233 2.0713 19.3061 1.34135 20.5414 0.804813C21.7892 0.268271 23.2178 0 24.8275 0C26.4995 0 28.0467 0.324421 29.4692 0.973262C30.9041 1.60963 32.1519 2.51426 33.2125 3.68717C34.2731 4.86007 35.0842 6.23262 35.6457 7.80481C36.2072 9.36453 36.4505 11.074 36.3756 12.9332C37.561 13.295 38.5467 13.8503 39.3328 14.5989C40.1314 15.3476 40.7241 16.2273 41.1109 17.238C41.5102 18.2487 41.7098 19.3217 41.7098 20.4572C41.7098 21.5303 41.4915 22.5285 41.0547 23.4519C40.6305 24.3627 40.0316 25.1613 39.258 25.8476C38.4843 26.5214 37.5735 27.0517 36.5253 27.4385C35.4897 27.8128 34.3729 28 33.1751 28ZM33.1564 26.9893C34.5663 26.9893 35.8391 26.7023 36.9745 26.1283C38.1225 25.5544 39.0271 24.7807 39.6884 23.8075C40.3622 22.8217 40.6991 21.705 40.6991 20.4572C40.6991 18.8351 40.2375 17.4127 39.3141 16.1898C38.4032 14.9545 37.1555 14.1123 35.5708 13.6631C35.4211 13.6257 35.3462 13.5258 35.3462 13.3636C35.3462 13.0267 35.3524 12.6961 35.3649 12.3717C35.3899 12.0348 35.3961 11.7228 35.3836 11.4358C35.2214 9.46435 34.6662 7.69251 33.7178 6.12032C32.782 4.54813 31.5467 3.3066 30.012 2.39572C28.4772 1.47237 26.749 1.0107 24.8275 1.0107C23.2678 1.0107 21.9077 1.28521 20.7473 1.83422C19.5993 2.38324 18.6136 3.10695 17.79 4.00535C16.9665 4.90374 16.2615 5.87077 15.6751 6.90642C15.5877 7.06863 15.4629 7.1123 15.3007 7.03743C14.028 6.50089 12.7927 6.40731 11.5949 6.75668C10.397 7.09358 9.41125 7.79234 8.63763 8.85294C7.86401 9.90107 7.47721 11.2237 7.47721 12.8209C7.47721 13.0205 7.38986 13.1203 7.21517 13.1203C5.97988 13.1203 4.92551 13.4011 4.05207 13.9626C3.17863 14.5241 2.50483 15.2914 2.03068 16.2647C1.56901 17.2255 1.33817 18.3111 1.33817 19.5214C1.33817 20.9064 1.70002 22.1604 2.42373 23.2834C3.15991 24.4064 4.16437 25.2986 5.4371 25.9599C6.70983 26.6087 8.14476 26.9332 9.74191 26.9332L33.1564 26.9893ZM14.4585 21.5989C13.585 20.713 13.1483 19.7086 13.1483 18.5856C13.1483 17.4501 13.585 16.4456 14.4585 15.5722L17.5467 12.5027C17.3471 12.877 17.2161 13.2201 17.1537 13.5321C17.1038 13.844 17.085 14.1185 17.0975 14.3556L15.2259 16.2086C14.5271 16.8948 14.1715 17.6809 14.159 18.5668C14.1465 19.4403 14.4772 20.2201 15.151 20.9064C15.8373 21.5802 16.6234 21.9171 17.5093 21.9171C18.4077 21.9046 19.2 21.5553 19.8863 20.869L23.1991 17.5562C23.9104 16.8324 24.266 16.0276 24.266 15.1417C24.266 14.2558 23.9353 13.4822 23.274 12.8209C22.7998 12.3592 22.282 12.0472 21.7205 11.885C21.1715 11.7103 20.7535 11.6979 20.4665 11.8476C20.6287 11.6729 20.741 11.5544 20.8034 11.492C20.8783 11.4296 20.9407 11.3734 20.9906 11.3235L21.3649 10.9305C21.6519 10.918 22.0449 10.9991 22.5441 11.1738C23.0432 11.336 23.5173 11.6542 23.9665 12.1283C24.815 13.0143 25.2455 14.025 25.258 15.1604C25.2704 16.2834 24.84 17.2816 23.9665 18.1551L20.4852 21.5989C19.6243 22.4724 18.626 22.9153 17.4906 22.9278C16.3551 22.9278 15.3444 22.4848 14.4585 21.5989ZM28.5146 7.58021C29.3756 8.45365 29.8061 9.45811 29.8061 10.5936C29.8186 11.7291 29.3881 12.7335 28.5146 13.607L25.4451 16.6765C25.6323 16.3146 25.7571 15.9777 25.8195 15.6658C25.8818 15.3414 25.9006 15.0606 25.8756 14.8235L27.7473 12.9706C28.446 12.2843 28.7954 11.5045 28.7954 10.631C28.8079 9.75758 28.471 8.97148 27.7847 8.27273C27.1234 7.59893 26.356 7.26203 25.4826 7.26203C24.6091 7.26203 23.8105 7.62389 23.0868 8.34759L19.774 11.6604C19.0752 12.3467 18.7196 13.1328 18.7072 14.0187C18.6947 14.8922 19.0316 15.672 19.7178 16.3583C20.1546 16.8075 20.6537 17.1194 21.2152 17.2941C21.7892 17.4688 22.2196 17.4875 22.5066 17.3503C22.3444 17.5 22.2259 17.6123 22.151 17.6872C22.0886 17.7496 22.0387 17.8057 22.0013 17.8556L21.6269 18.2299C21.34 18.2424 20.9469 18.1676 20.4478 18.0053C19.9612 17.8307 19.4932 17.5125 19.0441 17.0508C18.1581 16.1774 17.7089 15.1729 17.6965 14.0374C17.6965 12.902 18.1394 11.8975 19.0253 11.0241L22.4879 7.58021C23.3613 6.70677 24.3658 6.26381 25.5013 6.25134C26.6367 6.23886 27.6412 6.68182 28.5146 7.58021Z" fill="#00897B"/>
</svg>
